<?xml version="1.0" encoding="UTF-8" standalone="no"?>
<!DOCTYPE svg PUBLIC "-//W3C//DTD SVG 1.1//EN" "http://www.w3.org/Graphics/SVG/1.1/DTD/svg11.dtd">
<svg width="100%" height="100%" viewBox="0 0 128 128" version="1.1" xmlns="http://www.w3.org/2000/svg" xmlns:xlink="http://www.w3.org/1999/xlink" xml:space="preserve" xmlns:serif="http://www.serif.com/" style="fill-rule:evenodd;clip-rule:evenodd;stroke-linejoin:round;stroke-miterlimit:2;">
    <g transform="matrix(1,0,0,1,-3666,-1782)">
        <g id="Artboard2" transform="matrix(0.540084,0,0,0.571887,1686.05,762.897)">
            <rect x="3666" y="1782" width="237" height="223.82" style="fill:rgb(237,230,227);"/>
            <clipPath id="_clip1">
                <rect x="3666" y="1782" width="237" height="223.82"/>
            </clipPath>
            <g clip-path="url(#_clip1)">
                <g transform="matrix(1.36314,0,0,1.36314,-1620.66,-906.754)">
                    <g transform="matrix(0.968854,0,0,0.914976,3503.88,1323.87)">
                        <path d="M439.358,728.636C439.358,728.636 444.358,725.656 463,727.155C470.354,727.747 490.52,735.929 492,744.668C493.53,753.7 465.81,751.879 452.399,755.118C446.856,756.456 439.358,755.118 439.358,755.118L439.358,728.636Z" style="fill:rgb(68,175,105);"/>
                    </g>
                    <g transform="matrix(0.241387,0,0,0.457488,3878.52,2547.23)">
                        <path d="M669.794,-971.969C669.794,-996.54 629.759,-1016.49 580.448,-1016.49L137.971,-1016.49C88.66,-1016.49 48.625,-996.54 48.625,-971.969L48.625,-882.927C48.625,-858.356 88.66,-838.407 137.971,-838.407L580.448,-838.407C629.759,-838.407 669.794,-858.356 669.794,-882.927L669.794,-971.969Z" style="fill:rgb(233,211,166);"/>
                    </g>
                    <g transform="matrix(0.241387,0,0,0.457488,3878.52,2556.93)">
                        <path d="M669.794,-971.969C669.794,-996.54 629.759,-1016.49 580.448,-1016.49L137.971,-1016.49C88.66,-1016.49 48.625,-996.54 48.625,-971.969L48.625,-882.927C48.625,-858.356 88.66,-838.407 137.971,-838.407L580.448,-838.407C629.759,-838.407 669.794,-858.356 669.794,-882.927L669.794,-971.969Z" style="fill:rgb(228,194,122);"/>
                    </g>
                    <g transform="matrix(0.316071,0,0,0.914976,3798.59,1307.67)">
                        <path d="M427.715,746.358C427.715,743.953 421.73,742 414.358,742C406.985,742 401,743.953 401,746.358L401,850.642C401,853.047 406.985,855 414.358,855C421.73,855 427.715,853.047 427.715,850.642L427.715,746.358Z" style="fill:rgb(55,56,55);"/>
                    </g>
                    <g transform="matrix(0.391363,0,0,0.369599,3829.9,1971.84)">
                        <path d="M365.723,214.913C336.397,214.913 312.623,238.686 312.623,268.013C312.623,297.319 336.417,321.113 365.723,321.113C395.05,321.113 418.824,297.339 418.824,268.013L365.723,268.013L365.723,214.913Z" style="fill:white;"/>
                    </g>
                    <g transform="matrix(0.276681,0,0,0.261295,3871.84,2000.87)">
                        <circle cx="365.723" cy="268.013" r="53.1" style="fill:rgb(231,102,81);"/>
                    </g>
                </g>
            </g>
        </g>
    </g>
</svg>
